<svg id="Layer_4" data-name="Layer 4" xmlns="http://www.w3.org/2000/svg" viewBox="0 0 2491.62 1584.86"><defs><style>.cls-1{fill:#fff;}.cls-2{fill:#ccebf5;}.cls-3{fill:#444023;}.cls-4{fill:#f9b5b3;}.cls-5{fill:#089ed0;}.cls-6{opacity:0.1;}.cls-7{fill:#f4f4f4;}.cls-8{fill:#353635;}.cls-9{fill:#fffefe;}</style></defs><title>icon_home</title><path class="cls-1" d="M851,721.08v638.1h981.14V721.08H851Zm902,598.12h-385V1142.08h385V1319.2Zm0-238.29H905V806.24h848v274.67Z" transform="translate(-164.71 -41.08)"/><path class="cls-2" d="M699.63,1362.14c9.28,18.28,15.69,40.47,23.65,59h1335.1l10.78-27.14h76.73l-5.41-31.82H699.63Z" transform="translate(-164.71 -41.08)"/><polygon class="cls-3" points="1884.73 1410.45 1132.63 1410.45 1132.63 1405.03 1881.04 1405.03 1902.61 1350.17 1978.48 1350.17 1978.48 1322.96 425.69 1322.96 425.69 1350.17 538.85 1350.17 560.42 1405.03 867.06 1405.03 867.06 1410.45 556.72 1410.45 535.16 1355.59 420.26 1355.59 420.26 1317.54 1983.9 1317.54 1983.9 1355.59 1906.3 1355.59 1884.73 1410.45"/><ellipse class="cls-2" cx="1635.33" cy="128.43" rx="45.48" ry="81.69" transform="translate(753.2 1562.51) rotate(-68.56)"/><path class="cls-3" d="M1656.41,177.05c-18.34,0-39-3.9-59.76-12l2-5c51.52,20.23,102.4,13.86,113.42-14.19s-21.92-67.36-73.44-87.59-102.4-13.87-113.42,14.19c-5.81,14.78.6,33.54,17.59,51.47l-3.94,3.73c-18.49-19.52-25.3-40.35-18.7-57.17,12.12-30.84,66.14-38.58,120.45-17.26s88.62,63.78,76.5,94.62C1709.61,166.82,1686.1,177.05,1656.41,177.05Z" transform="translate(-164.71 -41.08)"/><rect class="cls-3" x="1661.88" y="991.56" width="5.42" height="330.29"/><rect class="cls-3" x="744.34" y="1117.56" width="287.54" height="5.42"/><rect class="cls-3" x="744.34" y="1175.87" width="403.62" height="5.42"/><rect class="cls-4" x="744.35" y="1231.47" width="176.95" height="49.26" rx="5.13" ry="5.13"/><path class="cls-3" d="M1072.09,1324.52H923a16.64,16.64,0,0,1-16.63-16.62v-21.43A16.64,16.64,0,0,1,923,1269.84h149.12a16.64,16.64,0,0,1,16.63,16.62v21.43A16.64,16.64,0,0,1,1072.09,1324.52ZM923,1275.26a11.22,11.22,0,0,0-11.2,11.2v21.43a11.22,11.22,0,0,0,11.2,11.2h149.12a11.22,11.22,0,0,0,11.2-11.2v-21.43a11.22,11.22,0,0,0-11.2-11.2H923Z" transform="translate(-164.71 -41.08)"/><rect class="cls-3" x="134.9" y="1135.29" width="55.99" height="5.42"/><rect class="cls-3" x="212.65" y="1135.29" width="55.99" height="5.42"/><rect class="cls-3" x="199.06" y="1071.12" width="5.42" height="55.99"/><rect class="cls-3" x="199.06" y="1148.88" width="5.42" height="55.99"/><rect class="cls-3" x="293.28" y="1030.64" width="23.44" height="5.42"/><rect class="cls-3" x="325.83" y="1030.64" width="23.44" height="5.42"/><rect class="cls-3" x="318.56" y="1005.36" width="5.42" height="23.43"/><rect class="cls-3" x="318.56" y="1037.91" width="5.42" height="23.44"/><rect class="cls-3" x="1213.03" y="1405.03" width="1113.89" height="5.42"/><rect class="cls-3" y="1405.03" width="733.04" height="5.42"/><rect class="cls-3" x="2156.6" y="1068.12" width="335.02" height="5.42"/><rect class="cls-3" x="2083.43" y="1030.64" width="102.33" height="5.42"/><path class="cls-5" d="M1986.42,776.37l-0.51-5.39c253.8-24.14,385.14-114.16,450.64-185.44,70.75-77,81.86-149,82-149.7l5.36,0.78c-0.11.73-11.47,74.37-83.34,152.59C2398.41,635,2344,673.54,2278.87,703.63,2197.57,741.17,2099.17,765.64,1986.42,776.37Z" transform="translate(-164.71 -41.08)"/><path class="cls-5" d="M1310.05,1625.94c-44.81-176.2-245.17-277.18-438.93-374.84C694.4,1162,527.49,1077.91,504.26,944.45c-9-51.85,3-93.77,35.66-124.57,79.42-74.85,257.14-62,312.89-48.86l-1.24,5.28c-55-13-230.13-25.8-307.93,47.52-31.28,29.47-42.73,69.74-34,119.69,22.76,130.77,188.49,214.3,364,302.74,194.84,98.2,396.32,199.75,441.74,378.34Z" transform="translate(-164.71 -41.08)"/><g class="cls-6"><path d="M934.32,865.72c41.79,23,85.37,42.42,129,61.56,170.1,74.63,339.84,149.82,511,222,84.9,35.81,170.07,71,255,106.76V718.71H852.19V812.9C879,831.28,905.61,849.94,934.32,865.72Z" transform="translate(-164.71 -41.08)"/></g><path class="cls-2" d="M1981.31,1088.71c126.28-329.51-36.51-699.83-365.6-829.1a641,641,0,0,0-270.94-43.68c31.3,5.79,58.44,19.75,78.31,42.41,65.83,75.08,27.21,216.61-86.27,316.12S1078,693.77,1012.12,618.69s-27.21-216.61,86.27-316.12a398.58,398.58,0,0,1,81.17-55.35c-174,57.3-322.38,188.12-396,371Z" transform="translate(-164.71 -41.08)"/><path class="cls-2" d="M1605.19,231.18l2.19,6.58-27.26-10.71-9.42-81.39,63.12,24.79-6.09,3.33A48.11,48.11,0,0,0,1605.19,231.18Z" transform="translate(-164.71 -41.08)"/><path class="cls-3" d="M1937.17,1077.92l-2.47-1-1200-471.34,0.91-2.49c1.75-4.78,3.55-9.55,5.42-14.32C800,438.75,920.07,315,1088.27,231l2.42,4.85C923.71,319.26,804.56,442,746.11,590.79q-2.3,5.85-4.46,11.72l1192.56,468.43q2.4-5.77,4.71-11.62c129.17-328.86-33.28-701.5-362.14-830.67a636.64,636.64,0,0,0-246.67-44.41l-0.11-5.42a642.71,642.71,0,0,1,248.76,44.78c160.65,63.1,287.12,185,356.1,343.21s72.21,333.83,9.11,494.48q-2.81,7.15-5.78,14.18Z" transform="translate(-164.71 -41.08)"/><polygon class="cls-7" points="1206.12 361.38 1052.22 428.47 1119.32 582.36 1135.17 575.45 1074.98 437.41 1213.03 377.23 1206.12 361.38"/><polygon class="cls-7" points="1416.45 443.99 1400.6 450.9 1460.78 588.95 1322.74 649.13 1329.65 664.98 1483.54 597.88 1416.45 443.99"/><rect class="cls-7" x="1310.59" y="541.93" width="240.68" height="17.29" transform="translate(-141.83 1116.2) rotate(-44.36)"/><polygon class="cls-8" points="1134.89 585 1069.63 435.3 1219.32 370.04 1222.57 377.5 1080.33 439.51 1142.34 581.75 1134.89 585"/><polygon class="cls-8" points="1339.2 665.25 1335.95 657.79 1478.19 595.78 1416.18 453.54 1423.63 450.29 1488.89 599.99 1339.2 665.25"/><rect class="cls-8" x="1321.97" y="550.98" width="240.68" height="8.13" transform="translate(-141.59 1125.71) rotate(-44.37)"/><path class="cls-3" d="M1607.57,240c-8.46-16.66-10.09-31.61-4.85-44.41,7.95-19.42,28.69-26.57,29.56-26.87l1.73,5.14c-0.19.07-19.32,6.71-26.3,23.83-4.6,11.28-3,24.69,4.69,39.86Z" transform="translate(-164.71 -41.08)"/><path class="cls-3" d="M1541,213.87l-1.87-5.09c16-5.88,26.28-14.65,30.58-26.06,6.53-17.34-3-35.13-3.06-35.31l4.76-2.59c0.44,0.81,10.77,20.17,3.37,39.81C1569.92,197.58,1558.55,207.42,1541,213.87Z" transform="translate(-164.71 -41.08)"/><polygon class="cls-3" points="690.19 1321.85 684.77 1321.85 684.77 674.91 867.06 674.91 867.06 680.33 690.19 680.33 690.19 1321.85"/><polygon class="cls-3" points="1592.24 1044.56 741.63 1044.56 741.63 763.71 1098.69 763.71 1098.69 769.13 747.05 769.13 747.05 1039.14 1586.82 1039.14 1586.82 958.43 1592.24 958.43 1592.24 1044.56"/><path class="cls-9" d="M2003.63,569.31c-44.76-157-143.11-228.13-144.09-228.82l3.13-4.43c1,0.71,100.86,72.83,146.17,231.76Z" transform="translate(-164.71 -41.08)"/><path class="cls-9" d="M2037.18,471.5c-15.22-67.22-52.4-99.66-52.77-100l3.52-4.12c1.58,1.35,38.92,33.94,54.53,102.9Z" transform="translate(-164.71 -41.08)"/><polygon class="cls-3" points="1592.24 1283.44 1202.56 1283.44 1202.56 1096.11 1491.21 1096.11 1491.21 1101.53 1207.98 1101.53 1207.98 1278.02 1586.82 1278.02 1586.82 1109.61 1592.24 1109.61 1592.24 1283.44"/></svg>